<?xml version="1.0" standalone="no"?>
<!DOCTYPE svg PUBLIC "-//W3C//DTD SVG 20010904//EN"
 "http://www.w3.org/TR/2001/REC-SVG-20010904/DTD/svg10.dtd">
<svg version="1.0" xmlns="http://www.w3.org/2000/svg"
 width="1920.000000pt" height="1080.000000pt" viewBox="0 0 1920.000000 1080.000000"
 preserveAspectRatio="xMidYMid meet">

<g transform="translate(0.000000,1080.000000) scale(0.100000,-0.100000)"
fill="#000000" stroke="none">
<path d="M0 5400 l0 -5400 9600 0 9600 0 0 5400 0 5400 -9600 0 -9600 0 0
-5400z m17720 4678 c94 -251 162 -432 182 -483 11 -27 23 -61 28 -75 7 -23
291 -775 361 -955 17 -44 36 -96 44 -115 7 -19 20 -53 28 -75 46 -116 216
-572 219 -585 4 -20 -29 -18 -227 14 -88 14 -234 38 -325 52 -232 36 -555 90
-685 114 -60 11 -207 36 -325 55 -408 65 -1001 166 -1009 171 -7 6 29 54 126
174 52 63 107 130 121 149 15 19 43 53 63 75 19 23 73 88 120 146 46 58 89
110 94 116 22 25 53 63 110 134 33 41 66 82 74 90 8 8 58 69 110 135 95 120
317 392 350 430 9 11 111 135 226 275 217 265 246 300 256 300 3 0 29 -64 59
-142z m-16020 -997 c36 -11 117 -36 180 -56 63 -20 174 -54 245 -76 251 -78
282 -87 560 -173 154 -48 334 -105 400 -126 66 -21 194 -61 285 -88 91 -28
275 -85 410 -127 135 -43 262 -82 283 -87 20 -6 37 -13 37 -17 -1 -11 -34 -45
-150 -151 -62 -58 -126 -116 -140 -130 -15 -14 -56 -52 -91 -85 -36 -33 -121
-112 -190 -176 -68 -64 -148 -138 -178 -165 -30 -27 -66 -60 -80 -74 -14 -14
-44 -40 -66 -59 -42 -36 -128 -115 -235 -215 -36 -34 -117 -108 -180 -166 -63
-57 -140 -128 -170 -156 -232 -217 -434 -394 -441 -386 -7 7 -86 328 -96 387
-2 17 -20 95 -39 174 -19 79 -36 157 -39 172 -5 27 -35 161 -55 244 -5 22 -30
130 -55 240 -25 110 -54 236 -64 280 -43 180 -52 219 -81 352 -16 76 -32 147
-35 158 -12 48 -104 464 -110 499 -6 34 -4 38 12 33 10 -3 47 -15 83 -26z
m9001 -79 c1 -20 5 -48 19 -117 6 -27 12 -61 15 -75 3 -14 10 -50 16 -80 6
-30 12 -62 13 -70 1 -9 6 -21 10 -28 4 -7 6 -16 3 -18 -3 -3 -1 -21 4 -39 6
-19 12 -52 14 -74 2 -21 11 -67 20 -100 9 -34 13 -66 10 -71 -3 -6 -1 -10 6
-10 6 0 9 -8 6 -20 -3 -11 -1 -20 5 -20 5 0 6 -4 3 -10 -3 -5 -1 -29 6 -52 7
-24 11 -55 10 -70 0 -15 3 -30 9 -33 6 -4 8 -10 6 -14 -3 -4 1 -29 9 -54 8
-26 12 -56 10 -67 -2 -11 0 -20 5 -20 4 0 8 -10 8 -22 0 -22 9 -83 12 -83 3 0
11 -39 15 -71 2 -17 11 -60 21 -95 9 -35 16 -76 16 -91 0 -16 4 -28 9 -28 6 0
7 -4 4 -10 -3 -5 1 -35 9 -67 8 -32 17 -77 20 -101 3 -24 10 -61 16 -83 6 -22
8 -44 5 -49 -3 -6 -1 -10 5 -10 6 0 9 -4 6 -8 -3 -5 4 -46 15 -92 10 -46 18
-85 15 -87 -2 -2 2 -28 10 -56 7 -29 16 -71 19 -94 3 -23 11 -70 19 -104 8
-34 13 -66 10 -71 -3 -4 0 -8 6 -8 6 0 8 -4 5 -10 -3 -5 -1 -27 4 -47 6 -21
13 -54 15 -73 3 -19 7 -56 11 -82 7 -48 4 -50 -35 -35 -8 3 -37 13 -65 22 -27
10 -59 21 -70 25 -17 7 -88 31 -105 35 -3 1 -12 4 -20 8 -8 3 -37 13 -65 22
-27 10 -59 21 -70 25 -17 7 -88 31 -105 35 -7 2 -42 16 -65 25 -19 8 -94 33
-105 35 -11 2 -86 27 -105 35 -40 17 -66 26 -97 33 -7 2 -22 8 -33 14 -11 6
-24 12 -30 13 -18 4 -94 29 -145 48 -8 3 -26 7 -39 9 -13 2 -34 11 -47 20 -13
8 -24 12 -24 8 0 -4 -7 -2 -15 5 -8 7 -15 9 -15 6 0 -4 -10 -1 -22 6 -13 6
-27 13 -33 14 -5 2 -19 5 -31 7 -11 3 -36 12 -55 19 -18 8 -37 16 -41 17 -4 1
-15 4 -23 6 -8 3 -22 7 -30 10 -8 2 -19 5 -23 6 -4 0 -16 6 -27 12 -11 6 -27
13 -35 14 -29 7 -35 9 -55 20 -11 6 -24 11 -30 12 -9 1 -40 10 -93 26 -7 3
-14 5 -17 5 -3 0 -25 9 -50 20 -25 11 -45 17 -45 13 0 -3 -7 0 -15 7 -8 7 -15
9 -15 5 0 -4 -11 0 -24 8 -13 9 -34 18 -47 19 -13 2 -33 9 -45 15 -11 7 -31
13 -45 15 -13 2 -34 9 -46 16 -13 7 -23 10 -23 6 0 -3 -7 -1 -15 6 -8 7 -15 9
-15 6 0 -4 -10 -1 -22 6 -13 6 -29 13 -35 15 -7 2 -19 4 -25 6 -7 2 -24 9 -38
17 -14 7 -27 13 -30 12 -5 -2 -61 14 -90 25 -8 4 -17 7 -20 8 -45 12 -50 17
-38 38 10 20 78 91 78 82 0 -3 13 8 29 23 15 15 47 42 71 61 23 19 55 48 71
63 16 16 29 27 29 24 0 -3 25 19 55 49 30 30 55 52 55 49 0 -3 13 7 29 23 17
15 46 42 66 58 20 17 54 46 75 65 21 19 58 51 81 70 23 19 55 47 71 62 15 15
28 24 28 20 1 -4 7 4 15 18 8 14 14 21 15 17 0 -4 17 8 38 29 20 20 56 50 80
67 23 17 42 35 42 40 0 6 3 8 6 4 6 -6 22 7 109 91 25 24 45 41 45 38 0 -3 18
12 40 34 22 22 40 38 40 35 0 -5 45 35 121 107 16 15 29 25 29 21 0 -3 10 5
23 18 12 13 47 44 77 69 30 25 71 62 92 83 21 20 38 34 38 31 0 -3 13 7 29 23
49 47 82 73 92 73 6 0 7 5 4 10 -3 6 1 10 10 10 8 0 18 7 21 15 4 8 10 13 14
10 5 -3 12 4 15 16 4 11 9 18 12 15 3 -3 11 0 18 7 7 7 38 35 69 62 32 28 70
62 84 76 29 28 61 23 63 -9z m3988 -1374 c38 -283 43 -320 101 -743 22 -165
54 -399 70 -520 16 -121 36 -269 44 -330 8 -60 26 -193 40 -295 14 -102 27
-201 30 -220 3 -19 10 -73 16 -120 7 -46 14 -88 16 -92 18 -29 -56 -5 -276 87
-74 31 -153 63 -175 71 -22 8 -49 18 -60 24 -11 5 -87 37 -170 71 -345 141
-424 173 -500 206 -44 20 -138 59 -210 88 -124 51 -297 121 -415 170 -30 13
-95 39 -145 59 -49 20 -103 43 -120 50 -16 7 -101 44 -187 81 -87 37 -158 71
-158 75 0 4 15 19 33 33 17 14 77 61 132 104 55 43 150 117 210 163 61 47 115
89 121 95 7 5 34 27 60 47 132 101 310 239 514 398 247 194 281 220 450 349
63 48 194 148 290 222 215 166 232 178 245 179 6 0 25 -111 44 -252z m-8139
-1063 c24 -3 46 -8 50 -10 4 -2 35 -9 71 -15 35 -5 75 -12 89 -14 14 -3 41 -7
60 -10 19 -3 82 -14 140 -25 106 -19 182 -32 210 -35 9 -1 21 -6 28 -10 7 -4
16 -6 18 -3 3 3 20 1 37 -4 18 -5 59 -14 92 -19 117 -19 266 -46 335 -60 25
-6 77 -15 115 -20 102 -16 128 -20 145 -25 8 -3 31 -7 50 -9 19 -3 85 -15 145
-26 61 -11 126 -23 145 -26 19 -2 42 -6 50 -9 8 -2 83 -16 165 -31 83 -14 170
-30 195 -34 25 -5 61 -11 80 -15 19 -3 42 -8 50 -10 8 -2 33 -7 55 -10 71 -10
140 -31 140 -42 0 -6 -377 -457 -839 -1002 -676 -799 -841 -989 -852 -980 -8
6 -14 16 -14 21 0 6 -7 24 -15 41 -8 18 -44 115 -80 217 -36 102 -68 192 -72
200 -3 8 -7 18 -8 23 -2 4 -4 9 -5 12 -1 3 -3 8 -5 13 -1 4 -7 19 -13 33 -6
15 -16 46 -22 69 -6 23 -16 50 -21 59 -5 9 -72 196 -149 416 -77 220 -144 409
-149 420 -5 11 -17 45 -27 75 -9 30 -21 61 -27 68 -5 6 -6 12 -2 12 4 0 3 6
-3 13 -5 6 -17 38 -26 70 -9 32 -22 70 -28 85 -6 15 -12 29 -13 32 -1 3 -7 17
-13 31 -6 15 -16 46 -22 70 -7 24 -15 49 -20 54 -4 6 -20 48 -35 95 -15 47
-33 99 -40 115 -14 31 -65 196 -65 208 0 4 13 5 29 2 16 -3 48 -7 71 -10z
m12060 -2499 c0 -2 -14 -36 -31 -77 -32 -78 -140 -340 -194 -474 -42 -102
-456 -1107 -495 -1200 -16 -38 -47 -115 -70 -170 -60 -146 -100 -241 -131
-315 -15 -36 -37 -91 -49 -122 -12 -32 -25 -58 -30 -58 -10 0 -23 17 -235 290
-75 96 -141 182 -148 190 -7 8 -26 33 -42 55 -33 44 -31 40 -112 145 -82 105
-172 223 -213 280 -19 27 -74 100 -122 162 -48 62 -124 160 -169 218 -44 58
-106 139 -137 180 -61 81 -73 96 -112 144 -30 36 -246 325 -278 373 -12 17
-19 34 -14 37 4 2 111 18 237 35 127 18 295 41 375 52 80 11 165 22 190 25 24
2 87 11 140 19 52 8 136 19 185 25 104 12 102 12 300 40 83 12 166 24 185 26
19 3 132 18 250 34 118 16 244 32 280 36 36 4 133 17 215 29 139 20 225 28
225 21z m-8942 -851 c6 -16 81 -246 167 -510 87 -264 212 -646 280 -850 67
-203 152 -464 189 -580 37 -115 85 -262 106 -325 21 -63 42 -130 45 -148 6
-30 5 -33 -11 -29 -11 3 -129 29 -264 57 -135 28 -263 55 -285 60 -22 5 -62
14 -90 19 -27 6 -178 37 -335 70 -157 33 -436 92 -620 130 -184 39 -355 75
-380 80 -25 6 -153 33 -285 61 -132 27 -251 53 -263 55 -23 6 -23 6 -6 33 10
15 34 45 54 67 39 42 191 212 300 335 36 41 84 94 106 119 23 25 90 100 149
166 60 66 148 163 196 215 48 52 97 106 109 120 37 43 252 282 275 306 5 6 39
43 75 84 36 40 74 83 85 94 11 12 60 66 110 121 49 55 96 107 105 116 8 9 49
53 90 97 41 45 77 79 80 74 4 -4 12 -20 18 -37z m3783 -137 c57 -62 124 -133
149 -159 25 -25 62 -66 83 -90 22 -24 76 -83 120 -130 45 -47 100 -106 121
-130 72 -81 220 -241 312 -338 50 -53 104 -109 119 -126 71 -77 212 -230 230
-249 17 -18 210 -228 240 -262 6 -6 52 -57 104 -113 100 -108 110 -120 154
-172 20 -24 24 -35 15 -40 -7 -3 -69 -19 -138 -34 -69 -15 -334 -74 -590 -132
-256 -58 -481 -109 -500 -113 -19 -4 -188 -42 -375 -85 -187 -42 -356 -81
-375 -85 -70 -16 -126 -28 -175 -39 -27 -6 -125 -28 -217 -49 l-168 -38 0 27
c0 14 18 82 39 150 22 68 65 207 95 309 31 102 60 194 65 205 5 11 28 83 50
160 23 77 73 237 111 355 38 118 103 325 145 460 42 135 92 295 112 355 19 61
36 115 37 120 2 6 6 17 9 25 4 8 27 83 53 165 49 160 51 165 63 165 4 0 54
-50 112 -112z m-9017 -443 c31 -8 77 -24 101 -35 24 -11 77 -32 117 -46 40
-14 87 -32 103 -40 30 -14 100 -39 209 -75 33 -11 66 -25 74 -32 8 -7 17 -11
18 -10 4 3 -1 5 124 -42 158 -60 243 -92 275 -106 17 -7 33 -13 38 -14 4 -2 9
-4 12 -5 3 -1 8 -3 13 -5 4 -1 19 -7 33 -13 15 -6 45 -16 68 -22 23 -6 63 -22
89 -36 25 -13 71 -32 102 -41 30 -8 92 -31 138 -50 45 -18 88 -31 94 -27 7 4
8 3 4 -4 -4 -7 -1 -12 9 -12 10 0 31 -6 48 -14 18 -8 84 -33 147 -56 63 -23
126 -47 140 -53 14 -6 27 -11 30 -12 3 -1 12 -5 20 -8 18 -8 73 -30 80 -32 3
-1 12 -5 20 -8 8 -4 51 -20 95 -36 104 -38 165 -64 165 -72 0 -7 -70 -72 -124
-114 -21 -16 -51 -41 -66 -55 -44 -40 -84 -73 -120 -100 -18 -14 -39 -31 -46
-37 -7 -7 -17 -13 -22 -13 -6 0 -12 -4 -14 -9 -2 -7 -81 -76 -177 -156 -13
-11 -32 -28 -43 -37 -10 -10 -18 -15 -18 -10 0 4 -4 3 -8 -3 -4 -5 -29 -28
-57 -50 -27 -21 -61 -49 -75 -62 -38 -34 -64 -56 -100 -83 -56 -42 -154 -123
-175 -145 -11 -11 -36 -31 -55 -45 -19 -13 -39 -29 -45 -36 -5 -6 -62 -53
-125 -105 -63 -51 -125 -104 -137 -117 -13 -13 -23 -21 -23 -18 0 2 -10 -4
-22 -14 -25 -21 -131 -106 -192 -155 -21 -16 -46 -37 -56 -45 -10 -8 -37 -31
-61 -51 -24 -21 -57 -49 -72 -63 -15 -14 -31 -26 -35 -26 -4 0 -26 -18 -50
-40 -24 -22 -47 -40 -52 -40 -6 0 -10 -4 -10 -9 0 -9 -30 -24 -36 -18 -2 2
-11 46 -19 98 -8 52 -22 137 -30 189 -9 52 -22 133 -30 180 -8 47 -23 137 -34
200 -11 63 -22 137 -26 164 -3 27 -8 52 -10 55 -2 3 -6 29 -9 56 -3 28 -8 61
-10 75 -3 14 -14 81 -26 150 -12 69 -28 166 -36 215 -38 224 -45 264 -55 325
-5 36 -12 74 -14 85 -13 69 -38 226 -41 255 -5 52 -12 91 -23 127 -5 17 -7 34
-4 36 2 3 -2 38 -11 79 -8 40 -17 91 -20 113 -3 22 -11 70 -19 108 -17 76 -19
74 67 52z"/>
<path d="M17491 9573 c-40 -49 -80 -97 -89 -108 -9 -11 -45 -55 -79 -98 -35
-43 -98 -120 -139 -170 -104 -126 -104 -126 -149 -182 -50 -61 -43 -53 -219
-270 -81 -99 -154 -189 -163 -200 -9 -11 -37 -45 -64 -76 -26 -30 -44 -60 -41
-66 4 -6 90 -24 192 -41 102 -17 349 -58 550 -91 201 -34 390 -65 420 -71 237
-43 434 -70 443 -61 6 6 -21 92 -86 263 -53 139 -178 469 -277 733 -217 575
-197 525 -213 525 -8 0 -47 -39 -86 -87z"/>
<path d="M1993 8694 c-6 -17 -1 -44 52 -274 19 -85 58 -256 85 -380 28 -124
64 -281 80 -350 44 -182 88 -374 106 -460 22 -104 22 -104 23 -112 2 -19 30
-4 76 40 41 38 201 184 249 227 66 59 215 194 231 210 36 36 154 144 454 420
205 188 221 208 184 219 -120 35 -312 95 -623 191 -206 64 -402 125 -435 135
-80 24 -379 117 -433 135 -38 12 -44 12 -49 -1z"/>
<path d="M10480 8488 c0 -6 -3 -8 -6 -5 -4 4 -24 -11 -45 -33 -22 -22 -39 -37
-39 -34 0 3 -20 -14 -44 -39 -24 -24 -63 -59 -86 -78 -23 -19 -47 -39 -54 -44
-6 -6 -36 -30 -66 -55 -30 -24 -65 -55 -77 -68 -13 -13 -23 -20 -23 -17 0 4
-13 -6 -28 -22 -16 -15 -55 -50 -87 -78 -31 -27 -72 -63 -90 -80 -18 -16 -50
-44 -71 -62 -38 -30 -48 -39 -129 -108 -22 -19 -50 -43 -62 -53 -13 -11 -51
-46 -86 -78 -35 -32 -78 -70 -96 -84 -34 -25 -53 -41 -103 -86 -32 -28 -28
-51 11 -60 14 -4 31 -9 36 -13 6 -3 16 -7 23 -8 18 -4 35 -9 52 -16 18 -6 42
-14 52 -16 4 -1 28 -10 53 -21 25 -11 46 -19 48 -19 4 1 122 -39 152 -51 17
-7 88 -31 105 -35 5 -2 10 -4 55 -21 26 -10 25 -9 60 -19 17 -4 35 -10 40 -14
6 -3 16 -7 23 -8 19 -5 36 -9 55 -16 24 -10 41 -15 47 -14 3 0 16 -6 30 -13
14 -8 31 -15 38 -17 21 -5 36 -10 52 -16 8 -3 38 -13 65 -22 28 -10 59 -21 70
-25 17 -7 88 -31 105 -35 8 -2 43 -16 65 -25 11 -5 58 -21 105 -35 47 -15 92
-30 100 -34 9 -5 30 -12 47 -15 31 -7 32 -7 28 26 -4 35 -14 98 -21 129 -20
92 -29 138 -38 195 -4 22 -11 55 -16 74 -4 19 -11 54 -14 78 -3 24 -10 61 -16
83 -6 22 -13 56 -15 77 -2 20 -9 60 -15 87 -6 28 -13 66 -16 85 -2 19 -9 50
-14 70 -5 19 -12 53 -15 75 -4 22 -13 69 -21 103 -8 35 -12 68 -8 73 3 5 0 9
-6 9 -6 0 -9 4 -5 9 3 5 1 13 -5 16 -6 4 -8 14 -5 24 3 9 -3 46 -13 82 -10 36
-18 76 -17 88 1 11 -2 21 -7 21 -4 0 -7 10 -6 23 1 12 -4 39 -10 60 -6 21 -8
45 -5 53 3 8 1 14 -5 14 -6 0 -8 8 -5 19 3 11 -2 21 -11 24 -9 4 -16 1 -16 -5z"/>
<path d="M14245 7219 c-174 -136 -406 -315 -483 -372 -20 -15 -44 -33 -52 -40
-8 -7 -84 -66 -169 -132 -84 -66 -190 -149 -235 -184 -44 -35 -98 -75 -118
-89 -30 -20 -36 -28 -28 -42 5 -10 21 -21 36 -24 28 -7 308 -120 335 -135 18
-10 115 -51 374 -157 99 -40 214 -87 255 -104 263 -111 468 -192 485 -194 17
-1 20 5 19 44 -1 25 -20 180 -42 345 -61 440 -101 735 -118 867 -38 293 -49
353 -64 355 -8 2 -96 -60 -195 -138z"/>
<path d="M6897 6204 c-10 -10 -9 -29 5 -61 6 -15 12 -30 13 -33 1 -3 5 -12 8
-20 17 -39 167 -473 167 -482 0 -5 7 -24 15 -41 8 -18 35 -90 60 -162 25 -71
50 -139 55 -150 5 -11 19 -51 31 -90 12 -38 24 -74 28 -80 4 -5 16 -37 26 -70
10 -33 22 -66 28 -72 5 -7 6 -13 2 -13 -4 0 -3 -6 2 -12 6 -7 18 -38 28 -68 9
-30 23 -68 30 -85 7 -16 16 -42 20 -57 13 -53 29 -52 76 4 24 29 259 306 522
616 262 310 477 570 477 578 0 8 -4 15 -10 15 -5 1 -13 2 -17 3 -5 1 -28 6
-53 10 -25 5 -54 10 -65 12 -11 2 -46 9 -77 14 -32 6 -84 14 -115 20 -32 5
-69 12 -83 15 -14 3 -45 8 -69 11 -25 3 -48 7 -51 9 -4 2 -34 9 -68 14 -165
29 -202 35 -255 47 -16 3 -38 7 -50 9 -29 4 -146 24 -177 30 -14 3 -42 7 -63
10 -21 3 -57 9 -80 14 -23 5 -69 14 -102 20 -110 19 -225 42 -238 47 -7 2 -16
1 -20 -2z"/>
<path d="M18029 3709 c-19 -4 -54 -9 -79 -12 -25 -3 -178 -24 -340 -46 -162
-22 -320 -42 -350 -46 -30 -3 -62 -7 -70 -10 -8 -2 -42 -7 -75 -10 -32 -4 -62
-8 -65 -10 -3 -1 -32 -6 -65 -9 -33 -3 -136 -17 -230 -30 -93 -13 -175 -22
-182 -19 -26 10 -24 -27 4 -64 15 -21 30 -40 33 -43 3 -3 28 -34 55 -70 102
-134 292 -386 343 -454 29 -39 57 -73 60 -76 4 -3 61 -76 127 -163 66 -86 131
-172 145 -190 136 -178 193 -247 204 -247 8 0 28 34 46 78 29 71 46 112 135
327 357 868 445 1083 445 1094 0 13 -74 13 -141 0z"/>
<path d="M9435 2603 c-43 -49 -119 -133 -169 -188 -146 -159 -196 -215 -281
-310 -44 -49 -105 -117 -135 -150 -30 -33 -89 -99 -131 -145 -41 -47 -122
-136 -178 -198 -59 -66 -101 -120 -99 -130 2 -12 28 -21 98 -35 96 -19 518
-107 1143 -239 243 -52 340 -69 348 -61 8 8 -23 113 -109 374 -112 340 -370
1128 -378 1157 -8 27 -35 8 -109 -75z"/>
<path d="M13425 2543 c-14 -49 -63 -207 -110 -353 -46 -146 -120 -382 -165
-525 -44 -143 -103 -331 -131 -418 -27 -86 -47 -162 -43 -168 8 -14 -1 -16
424 81 195 44 534 121 754 170 219 50 402 93 407 96 12 7 1 31 -30 62 -79 83
-178 190 -521 562 -58 62 -118 128 -135 146 -56 60 -240 257 -288 308 -27 28
-62 68 -80 89 -17 20 -37 37 -44 37 -6 0 -23 -39 -38 -87z"/>
<path d="M4714 2212 c-9 -5 -4 -54 17 -180 16 -96 31 -191 33 -213 3 -21 7
-42 9 -47 3 -4 8 -32 12 -62 11 -85 13 -96 19 -127 7 -36 16 -90 21 -126 2
-16 6 -40 9 -55 7 -31 16 -86 21 -122 3 -21 18 -112 31 -185 2 -11 8 -51 15
-90 6 -38 13 -79 15 -90 2 -11 8 -51 13 -90 6 -38 13 -81 17 -95 3 -14 8 -46
11 -72 5 -40 9 -48 26 -48 17 0 125 80 177 130 9 9 33 29 55 45 21 17 50 40
63 52 14 13 30 23 35 23 6 0 7 3 4 6 -3 4 13 20 36 37 23 16 58 44 78 61 19
17 53 46 75 63 21 18 46 39 54 46 8 7 31 24 50 38 35 24 63 46 105 84 13 11
38 32 57 47 19 15 46 37 60 50 30 28 57 50 123 103 27 22 57 47 66 55 9 8 31
26 49 40 18 14 46 37 62 53 16 15 47 39 69 54 21 14 39 29 39 33 0 14 -24 26
-105 55 -44 15 -91 33 -105 38 -14 6 -27 11 -30 12 -3 1 -14 5 -25 10 -11 4
-54 21 -95 36 -41 15 -88 34 -105 40 -16 7 -32 13 -35 14 -3 1 -16 6 -30 12
-14 6 -61 23 -105 38 -44 16 -84 31 -90 35 -5 4 -50 22 -100 40 -49 18 -99 36
-110 40 -11 4 -24 9 -30 10 -5 1 -14 5 -20 10 -5 4 -37 15 -70 25 -33 9 -65
21 -71 26 -6 5 -19 10 -30 12 -10 2 -32 10 -49 17 -16 7 -32 14 -35 15 -33 8
-150 50 -165 59 -11 7 -33 17 -50 23 -16 6 -37 14 -45 17 -8 3 -20 2 -26 -2z"/>
</g>
</svg>
